<?xml version="1.0" encoding="utf-8"?>
<!-- Generator: Adobe Illustrator 27.0.0, SVG Export Plug-In . SVG Version: 6.00 Build 0)  -->
<svg version="1.1" id="レイヤー_1" xmlns="http://www.w3.org/2000/svg" xmlns:xlink="http://www.w3.org/1999/xlink" x="0px"
	 y="0px" viewBox="0 0 230 57" style="enable-background:new 0 0 230 57;" xml:space="preserve">
<style type="text/css">
	.st0{fill:#FFFFFF;}
</style>
<path class="st0" d="M226,21.7h-20c-0.2,0-0.5,0.1-0.5,0.4l-0.4,1.4c-0.1,0.2,0.1,0.3,0.3,0.3h15.1l-1.3,4.2l0,0
	c-0.1,0.4-0.4,0.6-0.8,0.7h-7.5c-0.6,0-1.1,0.4-1.3,0.9l-1.1,3.8c-0.1,0.3,0.1,0.7,0.4,0.8c0.1,0,0.2,0,0.3,0h5.9
	c0.6,0,1.1-0.3,1.3-0.9l0.6-1.9c0.1-0.4,0.4-0.6,0.8-0.7h5.5c1.7,0,3.1-1.1,3.7-2.6l1.1-3.8c0.4-1.1-0.2-2.2-1.3-2.6
	C226.6,21.7,226.3,21.6,226,21.7z"/>
<path class="st0" d="M118.9,21.7h-6.7c-0.2,0-0.4,0.2-0.5,0.4l-4.4,16.2c-0.1,0.1,0,0.3,0.2,0.4c0,0,0.1,0,0.1,0h6.7
	c0.2,0,0.4-0.2,0.5-0.4l4.4-16.2c0.1-0.1,0-0.3-0.2-0.4C119,21.7,118.9,21.7,118.9,21.7z"/>
<path class="st0" d="M80.4,21.7H67.1c-2.5-0.2-4.8,1.1-6,3.2l-7.4,13.4c-0.1,0.1,0,0.3,0.1,0.4c0,0,0.1,0,0.1,0h5.5
	c0.2,0,0.4-0.2,0.5-0.4L67,25.5c0.4-1,1.4-1.6,2.5-1.7h2.9c0.1,0,0.2,0.1,0.2,0.2c0,0,0,0.1,0,0.1l-1.9,6.6h-4.5
	c-0.2,0-0.5,0.2-0.6,0.4l-0.8,1.7c-0.1,0.2,0,0.4,0.2,0.4h5l-1.6,5.2c-0.1,0.1,0,0.3,0.2,0.4c0,0,0.1,0,0.1,0h6.8
	c0.2,0,0.4-0.2,0.5-0.4l4.6-16.2C80.7,22,80.6,21.8,80.4,21.7C80.4,21.7,80.4,21.7,80.4,21.7z"/>
<path class="st0" d="M57.4,21.8c-0.1-0.1-0.2-0.1-0.3-0.1H50c-0.3,0-0.5,0.2-0.6,0.4l-2.7,9.8c-0.1,0.4-0.1,0.4-0.4,0.4
	s-0.4-0.3-0.8-0.8l-5.1-9.5c-0.2-0.3-0.5-0.4-0.8-0.4H36c-1,0-1.9,0.6-2.2,1.6l-4.1,15.1c0,0.1,0,0.2,0.1,0.3
	c0.1,0.1,0.1,0.1,0.2,0.1h4.6c0.3,0,0.5-0.2,0.6-0.4l3.3-12.2c0.1-0.4,0.1-0.5,0.4-0.5s0.4,0.3,0.8,0.8l6.2,11.7
	c0.2,0.3,0.5,0.4,0.8,0.5h4.4c1,0.1,1.9-0.6,2.2-1.6l4.1-15C57.5,22,57.5,21.9,57.4,21.8z"/>
<path class="st0" d="M103.5,21.7H82.8c-0.2,0-0.5,0.1-0.6,0.4l-0.4,1.4c-0.1,0.2,0.1,0.4,0.3,0.4h1.5l-3.9,14.4
	c-0.1,0.1,0,0.3,0.2,0.4c0,0,0.1,0,0.1,0h4.7c0.2,0,0.4-0.2,0.5-0.4L89,24.7c0.2-0.7,0.5-1,1.2-1h1.1c0.7,0,0.9,0.3,0.7,1l-3.7,13.6
	c-0.1,0.1,0,0.3,0.2,0.4c0,0,0.1,0,0.1,0h4.7c0.2,0,0.4-0.2,0.5-0.4l3.7-13.5c0.2-0.7,0.5-1,1.2-1h1.1c0.7,0,0.9,0.3,0.7,1
	l-3.7,13.5c-0.1,0.1,0,0.3,0.2,0.4c0,0,0.1,0,0.1,0h6.7c0.2,0,0.4-0.2,0.5-0.4l3.2-11.5C108.4,23.6,106.5,21.7,103.5,21.7z"/>
<path class="st0" d="M214.3,35.3h-4.4c-1,0-1.9,0.7-2.3,1.6v0.1c-0.2,0.7,0.1,1.4,0.8,1.6c0.2,0.1,0.4,0.1,0.5,0.1h4.4
	c1,0,1.9-0.7,2.3-1.6V37c0.2-0.7-0.1-1.4-0.8-1.6C214.7,35.3,214.5,35.3,214.3,35.3z"/>
<path class="st0" d="M203.1,21.7H196c-0.2,0-0.4,0.2-0.5,0.4l-3.9,14.1c-0.1,0.3-0.2,0.4-0.5,0.4h-4.2c-1-0.1-1.7-0.9-1.7-1.9
	c0-0.2,0.1-0.4,0.1-0.5l3.4-12.1c0.1-0.1,0-0.3-0.2-0.4c0,0-0.1,0-0.1,0h-5.9c-0.2,0-0.4,0.2-0.5,0.4l-2.8,10.3
	c-0.9,3.4,1,6.3,4.4,6.3h17c0.2,0,0.5-0.1,0.6-0.4l0.4-1.4c0.1-0.2-0.1-0.4-0.3-0.4h-1.8l4-14.5c0.1-0.1,0-0.3-0.1-0.4
	C203.2,21.7,203.2,21.7,203.1,21.7z"/>
<path class="st0" d="M154,21.7h-13.3c-2.5-0.2-4.8,1.1-6,3.2l-3.2,5.8H120c-0.2,0-0.4,0.2-0.5,0.4l-0.4,1.7c0,0.2,0.1,0.3,0.2,0.4
	c0,0,0.1,0,0.1,0h10.8l-3,5.2c-0.1,0.1,0,0.3,0.2,0.4c0,0,0.1,0,0.1,0h5.5c0.2,0,0.4-0.2,0.5-0.4l7.1-12.8c0.4-1,1.4-1.6,2.5-1.7
	h2.9c0.1,0,0.2,0.1,0.2,0.2c0,0,0,0.1,0,0.1l-1.9,6.6h-4.5c-0.2,0-0.4,0.2-0.5,0.4l-0.8,1.7c-0.1,0.2,0,0.4,0.2,0.4h5l-1.6,5.2
	c-0.1,0.1,0,0.3,0.1,0.4c0,0,0.1,0,0.1,0h6.8c0.2,0,0.4-0.2,0.5-0.4l4.6-16.2c0-0.1,0-0.3-0.2-0.3C154.1,21.7,154.1,21.7,154,21.7z"
	/>
<path class="st0" d="M174.7,21.7h-18.1c-0.2,0-0.5,0.1-0.6,0.4l-0.4,1.4c0,0.2,0.1,0.4,0.3,0.4h2l-4,14.5c-0.1,0.1,0,0.3,0.2,0.4
	c0,0,0.1,0,0.1,0h6.7c0.2,0,0.4-0.2,0.5-0.4l3.9-14.1c0.1-0.3,0.2-0.4,0.5-0.4h4.2c1,0.1,1.7,0.9,1.7,1.9c0,0.2-0.1,0.4-0.1,0.6
	l-0.8,2.8l0,0c-0.2,1-1.9,1.6-2.8,1.6h-0.4l0,0h-2.5c-0.2,0-0.3,0.1-0.3,0.3c0,0,0,0.1,0,0.1l3.5,7.3c0.1,0.2,0.3,0.4,0.5,0.4h7.3
	c0.2,0,0.3-0.1,0.3-0.3c0,0,0-0.1,0-0.1l-2.9-6.2c1.5-0.2,3.6-0.9,4.3-2.9l0.9-3C179.1,23.8,177.7,21.7,174.7,21.7z"/>
<path class="st0" d="M35.3,18.9c-3.5,1.9-7.2,3.6-11,4.9l0,0c-0.1-0.1-0.3-0.1-0.4-0.2c-0.4-0.1-0.8-0.1-1.2-0.1
	c-0.3,0-0.5-0.1-0.6-0.4c-0.2-0.3-2.1-3.1-2.1-3.1l0,0c0,0,0.2-2.6,0.2-3.1c0.2-0.9,0.4-1.8,0.7-2.7l0,0c3.7-1.2,7.5-2,11.3-2.3
	c2.6-0.3,5.2-0.3,7.8-0.3c1,0,3.3,0.2,3.3,0.6C43.1,12.5,39.7,16.3,35.3,18.9z M20.2,4.1c0.1,0,0.3,0,0.4,0.1
	c0.1,0.1,0.3,0.1,0.4,0.2c0.1,0.1,0.3,0.2,0.4,0.2c0.1,0.1,0.3,0.1,0.4,0.1c0.3,0,0.5,0.1,0.8,0.3c0.2,0.6,0.2,1.2,0.1,1.8
	c-0.3,0.5-0.7,0.9-1,1.3c-0.3,0.3-0.3,0.4-0.3,0.9c0,0.4-0.2,0.9-0.4,1.3c-0.1,0.2-0.2,0.5-0.3,0.7c0,0.1-0.4,1.1,0,1.4
	c0.2,0.1,0.6-0.3,0.7-0.5c0.1-0.1,0.8-0.8,1.1-1.2c0.3-0.4,1.8-2,2-2.2c0.4-0.5,0.8-1,1.1-1.6c0.1-0.3-0.1-0.7-0.4-1.3
	c-0.1-0.2-0.2-0.4-0.3-0.6c-0.2-0.5-0.2-1.1,0-1.7c0-0.1,0-0.3,0-0.4c0-0.4,0.2-0.8,0.6-1.1c0.1-0.1,0.3-0.2,0.3-0.4
	c0.1-0.2,0.3-0.4,0.6-0.5c0.2-0.1,0.4-0.4,0.3-0.6c0-0.2-0.2-0.3-0.3-0.3c-0.3,0-0.9-0.1-0.9-0.1C25.4,0.1,25.2,0,24.9,0
	c-0.2,0-0.5,0.1-0.6,0.3c-0.3,0-0.6,0-0.9,0c-0.3,0.1-0.5,0.2-0.7,0.3c-0.4-0.1-0.7-0.1-1.1,0c-0.2,0-0.3,0.1-0.4,0.3
	c-0.1,0.2,0,0.4,0.1,0.6c0,0.1,0.1,0.2,0.2,0.3c0.1,0.1,0.1,0.2,0.1,0.3c0,0.2,0,0.4-0.1,0.6c-0.1,0.1-0.3,0.1-0.5,0.1
	c-0.4-0.1-0.7,0-1,0.2L19.8,3c-0.2,0.1-0.4,0.3-0.4,0.6c0,0.1,0,0.3,0.1,0.4C19.7,4.1,20,4.1,20.2,4.1z M25.5,37.3h-0.8l-1.1-0.2
	l-0.5-0.3l-1.2-0.7l-1.1-0.5l-0.3-0.6v-1.5l0.4-1.1h1.9c0,0,0.1,0,0.1-0.1l1.1-7.8l0,0l-0.2-0.3l0,0l0,0l-0.2,0.3l0,0l-0.1,0.8
	c0,0.2-0.1,0.5-0.2,0.5c-0.2,0.1-0.4,0.2-0.5,0.3l0,0c0,0.1-0.1,0.4-0.3,0.5c-0.1,0-0.2,0-0.4,0c-0.2-0.1-0.4-0.1-0.6,0l-0.2,0.1
	c-0.2,0.2-0.5,0.3-0.7,0.4c-0.5-0.1-0.9-0.3-1.2-0.7c-0.2-0.5-0.3-1.1-0.4-1.7c-0.1-0.5-0.2-1-0.3-1.2c-0.3-1-0.7-1.9-1.1-2.9
	c-0.2-0.3-0.2-0.7-0.1-1.1l0.2-0.9c0.2-1.1,0.6-2.7,0.7-3c0.2-0.9,0.3-1.8,0.4-2.7c0-0.1,0.3-0.9,0.5-1.5c0.2-0.6,0.3-0.9,0.4-1.1
	c0.1-0.7,0-1.4-0.2-2.1c0-0.1-0.1-0.3-0.2-0.5c-0.2-0.4-0.4-0.9-0.5-1.3c0-0.2-0.1-0.5-0.3-0.7l-0.1-0.2c-0.2-0.3-0.2-0.7-0.1-1.1
	c0.1-0.4,0.2-0.7,0.3-1.1c0.1-0.2,0.1-0.4,0.2-0.6c0-0.2-0.1-0.6-0.3-0.7L17.4,2l-0.5-0.2l0,0c-0.3-0.1-0.6-0.2-0.8-0.1
	C16,1.9,15.8,2,15.6,2.2h-0.2c-0.1,0-0.2,0-0.3,0.1c-0.1,0-0.1,0-0.2,0.2c0,0.1-0.1,0.1-0.1,0.1c-0.1,0.1-0.2,0.2-0.1,0.3
	C14.6,3,14.8,3.1,15,3.2c0.2,0,0.4,0,0.6,0.1l0,0l-1,0.3v0.1c-0.1,0-0.2,0-0.3,0l-0.2,0.1C14,3.8,14,3.9,14,4c0,0.1,0,0.2-0.1,0.2
	c-0.1,0.2-0.3,0.3-0.5,0.4c-0.1,0-0.2,0-0.3,0c-0.2,0-0.3,0-0.4,0.1c-0.1,0.3-0.2,0.6-0.2,0.9c0,0.3,0,0.6-0.1,0.9
	c-0.3,0.6-0.3,1.3-0.1,2l0,0c0.1,0.1,0.1,0.2,0.1,0.3c0,0.1,0,0.1,0,0.2l0,0l0,0l0.3-0.1c0.2,0,0.3,0,0.5,0c0.1,0.1,0.1,0.2,0,0.5
	c-0.1,0.3-0.2,0.4-0.1,0.6c0.1,0.1,0.1,0.1,0.2,0.1v0.1c0,0,0,0.1,0.1,0.1c0.2,0,0.4,0,0.6,0c0.2,0,0.3,0,0.5,0l0,0c0,0,0,0,0,0.1
	c0,0.1,0,0.1,0,0.2l0,0c0.3,0.2,0.6,0.5,0.5,0.8l0,0l0,0l-0.2,0.3c-0.2,0.3-0.3,0.3-0.3,0.4h0.1c0,0.1,0.1,0.1,0.1,0.1l0,0l0,0
	c0.4,0,0.8,0,1.2-0.2c0.5-0.1,0.9-0.1,1.4,0v0.1c0,0.2,0.1,0.3,0.3,0.5c0.2,0.2,0.3,0.3,0.2,0.4l-0.2,0.1c-0.1,0.1-0.3,0.2-0.3,0.4
	c-0.1,0.1-0.1,0.3-0.2,0.4C17,14,17,14,17,14.4l0,0v0.1v0.6c-3.5,1.4-6.9,3.1-10.1,5c-2.7,1.8-5.5,4.4-5.1,5.7s4.5,1.7,8,1.6
	c2.3-0.1,4.7-0.5,6.9-1l-0.6,5.9l0,0l0,0l3,0.2c-0.1,1-0.3,2-0.6,2.9c-0.2,0.2-0.3,0.5-0.4,0.8l0,0L18,36.8l-0.3,0.4l0,0l-0.2,0.5
	l0,0v0.6l0,0l0.3,0.1l0,0l1.7,0.1h1h2.9l1.4-0.1h0.8l0.6-0.1c0.4,0,0.5-0.5,0.3-0.8C26.4,37.3,25.7,37.3,25.5,37.3z"/>
<path class="st0" d="M48.8,15.6l0.4-1.3h0.7c0.5,0,1.3,0.1,1.1,0.6s-0.6,0.7-1.2,0.7H48.8z M47.9,18.9l0.5-1.9h1.2
	c2.1,0,3.3-0.8,3.7-2.1c0.3-1.3-0.4-2-2.6-2h-3.5l-1.7,5.9H47.9z"/>
<path class="st0" d="M54.3,14.6h1.9L56,15.4l0,0c0.4-0.7,1.2-1,1.9-1h0.3l-0.5,1.7c-0.1,0-0.3,0-0.4,0c-0.8-0.1-1.5,0.5-1.7,1.3
	l-0.4,1.4h-2.1L54.3,14.6z"/>
<path class="st0" d="M60.7,18c-0.4,0-0.6-0.1-0.6-0.4c0.2-0.6,1-0.4,1.8-0.7C61.8,17.6,61.3,18,60.7,18z M63.8,18.9L63.8,18.9
	c-0.2-0.3-0.2-0.4-0.1-0.6l0.6-2c0.3-1,0.4-1.8-2.2-1.8c-2.1,0-3.1,0.5-3.3,1.5h2.1c0.2-0.3,0.5-0.5,0.9-0.4c0.2,0,0.7,0,0.6,0.4
	c-0.2,0.8-3.8-0.1-4.4,1.9c-0.3,0.9,0.5,1.3,1.5,1.3c0.8,0,1.6-0.2,2.2-0.6v0.5H63.8z"/>
<path class="st0" d="M67.7,17.2l1.7-2.7h2.1l-2.9,4c-1,1.3-1.3,1.8-3.2,1.8c-0.4,0-0.8,0-0.9,0l0.3-1.2h0.4c0.7,0,0.9-0.2,0.8-0.6
	l-0.6-3.9h2.1L67.7,17.2z"/>
<path class="st0" d="M79.3,14.6l-0.3,1h-0.9l-0.9,3.3H75l1-3.3h-0.7l0.3-1h0.7c0.4-1.5,1.3-1.8,2.6-1.8h0.9l-0.3,1.1
	c-0.7,0-0.9,0-1.1,0.7L79.3,14.6z"/>
<path class="st0" d="M82.8,15.5c0.6,0,0.8,0.5,0.6,1.1c-0.2,0.8-0.7,1.2-1.3,1.2s-0.8-0.4-0.6-1.2C81.7,16,82.2,15.6,82.8,15.5z
	 M79.4,16.8C79,18.2,80.1,19,81.8,19c1.6,0.2,3.2-0.8,3.7-2.3c0.4-1.4-0.5-2.2-2.4-2.2C81.5,14.3,80,15.2,79.4,16.8z"/>
<path class="st0" d="M87.2,14.6h1.9l-0.3,0.9l0,0c0.4-0.7,1.2-1,1.9-1h0.3l-0.5,1.7c-0.1,0-0.3,0-0.4,0c-0.8-0.1-1.5,0.5-1.7,1.3
	l-0.4,1.4H86L87.2,14.6z"/>
<path class="st0" d="M96.6,17.5c-0.1,0.1,0,0.3,0.1,0.4c0.1,0.1,0.3,0.1,0.5,0.1c0.3,0,0.7-0.1,0.8-0.4c0.2-0.7-3.2-0.1-2.8-1.8
	c0.3-1.1,1.8-1.4,3-1.4c1.1,0,2.5,0.2,2.2,1.4h-1.9c0-0.1,0-0.2-0.1-0.3c-0.1-0.1-0.3-0.1-0.4-0.1c-0.4,0-0.6,0.1-0.7,0.3
	c-0.2,0.6,3.3,0.2,2.9,1.8c-0.3,0.9-1.4,1.5-3.3,1.5c-1.2,0-2.5-0.3-2.2-1.5L96.6,17.5z"/>
<path class="st0" d="M106.2,18.9h-2l0.2-0.6c-0.6,0.5-1.4,0.8-2.2,0.8c-1.2,0-1.8-0.6-1.4-1.8l0.8-2.6h2.2l-0.7,2.3
	c-0.2,0.6,0,0.8,0.5,0.8s0.9-0.4,1.1-1l0.6-2.1h2.1L106.2,18.9z"/>
<path class="st0" d="M108.7,14.6h1.9l-0.3,0.9l0,0c0.4-0.7,1.2-1,1.9-1h0.3l-0.5,1.7c-0.1,0-0.3,0-0.4,0c-0.8-0.1-1.5,0.5-1.7,1.3
	l-0.4,1.4h-2.1L108.7,14.6z"/>
<path class="st0" d="M117.2,14.6l-0.3,1H116l-1,3.3h-2.1l1-3.3h-0.7l0.3-1h0.7c0.4-1.5,1.3-1.8,2.6-1.8h0.9l-0.3,1.1
	c-0.7,0-0.9,0-1.1,0.7L117.2,14.6z"/>
<path class="st0" d="M119,14.4l0.4-1.5h2.2l-0.5,1.5l-1.2,2.2h-1.1L119,14.4z M117.7,18.9l0.5-1.6h2.1l-0.5,1.6H117.7z"/>
<path class="st0" d="M148.6,55.4c-0.2,0-0.5,0-0.7-0.1c1.3-0.3,2.2-1.5,2.2-2.8c0.1-0.4,0.4-0.7,0.8-0.6c0.3,0,0.6,0.3,0.6,0.6
	C151.6,54.1,150.3,55.4,148.6,55.4z M146.4,53.2c-0.4,0-0.7-0.3-0.7-0.7c0-1.6,1.4-2.9,3-2.9c0.3,0,0.5,0,0.7,0.1
	c-1.3,0.3-2.2,1.5-2.2,2.8C147.2,52.9,146.8,53.2,146.4,53.2L146.4,53.2z M152.7,50.6c-0.5-1.3-4.1-5.5-4.1-5.5s-3.6,4.3-4.1,5.5
	c-1.1,2.3-0.1,5,2.2,6.1c2.3,1.1,5,0.1,6.1-2.2c0.3-0.6,0.4-1.3,0.4-2C153.2,51.8,153.1,51.1,152.7,50.6L152.7,50.6z"/>
<path class="st0" d="M156.1,52.7l0.2,0.2c0.6,0.6,1.4,0.9,2.2,1c0.4,0,1-0.2,1.1-0.6s-0.4-0.5-0.8-0.6l-0.8-0.1
	c-1.5-0.3-2.6-1.1-2.3-2.8c0.4-2.5,2.9-3.9,5.2-3.9c1.1,0,2.3,0.3,3.2,0.9l-1.5,2.7c-0.6-0.5-1.3-0.8-2.1-0.8
	c-0.3,0-0.9,0.1-0.9,0.6c-0.1,0.4,0.4,0.5,0.7,0.5l0.8,0.2c1.6,0.4,2.6,1.2,2.3,3.1c-0.4,2.5-2.9,3.8-5.2,3.8c-1.4,0-2.7-0.3-3.9-1
	L156.1,52.7z"/>
<path class="st0" d="M168.5,49l-0.6,3.9c-0.1,0.4-0.1,0.9,0.5,0.9c0.6,0,0.7-0.5,0.8-0.9l0.6-3.9h3.6l-0.7,4.2
	c-0.4,2.4-2.6,3.4-4.8,3.4c-2.2,0-4.1-1.1-3.7-3.4l0.7-4.2L168.5,49z"/>
<path class="st0" d="M179.9,52.5c-0.3-0.3-0.7-0.4-1-0.4c-0.9,0-1.6,0.6-1.7,1.5l-0.5,2.9h-3.6l1.2-7.5h3.6l-0.2,1h0.1
	c0.6-0.9,1.7-1.3,2.7-1.2L179.9,52.5z"/>
<path class="st0" d="M182.2,48.3c0.3-2.2,1.5-3.4,3.8-3.4c0.5,0,1,0.1,1.6,0.2l-0.5,2.9c-0.1-0.1-0.3-0.1-0.5-0.1
	c-0.6,0-0.8,0.5-0.9,1v0.3L187,49l-0.5,2.9l-1.1-0.1l-0.7,4.7H181l0.7-4.7l-1,0.1l0.5-2.9l1,0.1L182.2,48.3z"/>
<path class="st0" d="M188.6,45h3.6l-1.8,11.4h-3.6L188.6,45z"/>
<path class="st0" d="M193,49h3.6l-1.2,7.5h-3.6L193,49z M197.1,46.7c-0.2,1.1-1.2,1.9-2.3,1.8c-1,0-1.9-0.5-1.7-1.8
	c0.2-1.1,1.2-1.8,2.3-1.8C196.6,44.9,197.3,45.6,197.1,46.7z"/>
<path class="st0" d="M201.1,50.2L201.1,50.2c0.7-0.8,1.7-1.3,2.7-1.4c1.9,0,2.4,1.4,2.1,3.1l-0.7,4.6h-3.6l0.6-3.6
	c0.1-0.4,0.2-1.1-0.5-1.1s-0.7,0.6-0.8,1.1l-0.6,3.7h-3.6l1.2-7.5h3.6L201.1,50.2z"/>
<path class="st0" d="M210.3,51.8c0-0.5,0.4-0.9,1-1c0.4,0,0.8,0.4,0.8,0.8c0,0.1,0,0.1,0,0.2H210.3z M215.3,53.4
	c0.6-2.8-1.2-4.5-3.9-4.5c-2.4-0.1-4.5,1.6-4.9,4c-0.4,2.6,1.6,3.8,3.9,3.8c1.9,0.1,3.7-0.9,4.6-2.6h-3.5c-0.1,0.4-0.5,0.6-0.8,0.6
	c-0.8,0-0.8-0.7-0.7-1.3L215.3,53.4z"/>
<path class="st0" d="M62.9,56.9v-5.3h0.5v5.3H62.9z"/>
<path class="st0" d="M67.8,56.9l-2.4-4.2c-0.1-0.2-0.2-0.4-0.2-0.6l0,0c0,0.2,0,0.5,0,0.8v4h-0.5v-5.3h0.6l2.4,4.2
	c0.1,0.2,0.2,0.4,0.2,0.6l0,0c0-0.2,0-0.5-0.1-0.7v-4h0.5v5.3H67.8z"/>
<path class="st0" d="M75.9,56c-0.4,0.7-1.1,1.1-1.9,1c-1.4,0-2.3-1-2.3-2.8c-0.2-1.3,0.8-2.5,2.1-2.7c0.1,0,0.1,0,0.2,0
	c0.7-0.1,1.5,0.3,1.8,1l-0.3,0.3c-0.3-0.6-0.8-0.9-1.5-0.9c-1,0-1.8,0.9-1.8,2.2c0,1.6,0.9,2.3,1.8,2.3c0.6,0,1.2-0.3,1.5-0.9
	L75.9,56z"/>
<path class="st0" d="M76.5,54.2c0-1.4,0.8-2.7,2.2-2.7s2.2,1.3,2.2,2.7c0,1.5-0.8,2.8-2.2,2.8S76.5,55.7,76.5,54.2z M80.5,54.2
	c0-1.3-0.7-2.3-1.7-2.3c-1.1,0-1.7,1-1.7,2.3c0,1.3,0.7,2.3,1.7,2.3S80.5,55.5,80.5,54.2L80.5,54.2z"/>
<path class="st0" d="M81.8,54.2c0-1.4,0.8-2.7,2.2-2.7s2.2,1.3,2.2,2.7c0,1.5-0.8,2.8-2.2,2.8S81.8,55.7,81.8,54.2z M85.8,54.2
	c0-1.3-0.7-2.3-1.7-2.3s-1.7,1-1.7,2.3c0,1.3,0.7,2.3,1.7,2.3S85.8,55.5,85.8,54.2z"/>
<path class="st0" d="M87.4,56.9v-5.3h2c0.9,0,1.6,0.7,1.6,1.5c0,0,0,0.1,0,0.1c0.1,0.9-0.6,1.6-1.4,1.7c-0.1,0-0.1,0-0.2,0h-1.5v1.9
	L87.4,56.9z M89.3,54.5c0.7,0,1.2-0.6,1.2-1.2c0-0.7-0.6-1.2-1.2-1.2h-1.4v2.5H89.3z"/>
<path class="st0" d="M92,56.9v-5.3h3.3v0.4h-2.8v1.9H95v0.4h-2.5v2.1h3v0.4L92,56.9z"/>
<path class="st0" d="M99.7,56.9l-1.3-2.3h-1.5v2.3h-0.5v-5.3h1.9c1,0,1.7,0.5,1.7,1.4c0.1,0.7-0.4,1.3-1,1.5l1.4,2.4L99.7,56.9z
	 M98.2,54.2c0.6,0.1,1.2-0.4,1.2-1c0,0,0-0.1,0-0.1c0-0.7-0.6-1-1.2-1h-1.4v2.1L98.2,54.2z"/>
<path class="st0" d="M104.5,56.9l-0.7-1.7h-2.2l-0.6,1.7h-0.5l2-5.3h0.6l2,5.3H104.5z M103.7,54.8c0-0.1-0.9-2.5-1-2.7
	c-0.1,0.2-0.9,2.6-1,2.7H103.7z"/>
<path class="st0" d="M106.7,56.9v-4.8h-1.7v-0.4h3.8v0.4h-1.7v4.8L106.7,56.9z"/>
<path class="st0" d="M109.7,56.9v-5.3h0.5v5.3H109.7z"/>
<path class="st0" d="M111.2,54.2c0-1.4,0.8-2.7,2.2-2.7s2.2,1.3,2.2,2.7c0,1.5-0.8,2.8-2.2,2.8S111.2,55.7,111.2,54.2z M115.2,54.2
	c0-1.3-0.7-2.3-1.7-2.3s-1.7,1-1.7,2.3c0,1.3,0.7,2.3,1.7,2.3S115.2,55.5,115.2,54.2z"/>
<path class="st0" d="M119.9,56.9l-2.4-4.2c-0.1-0.2-0.2-0.4-0.2-0.6l0,0c0,0.2,0,0.5,0,0.8v4h-0.5v-5.3h0.6l2.4,4.2
	c0.1,0.2,0.2,0.4,0.2,0.6l0,0c0-0.2-0.1-0.5-0.1-0.7v-4h0.5v5.3H119.9z"/>
<path class="st0" d="M127.7,56.9l-1-4.3c0-0.1,0-0.5-0.1-0.6l0,0c0,0.1,0,0.4-0.1,0.6l-1,4.3h-0.7l-1.2-5.3h0.5l1,4.2
	c0,0.2,0.1,0.4,0.1,0.6l0,0c0-0.2,0-0.5,0.1-0.6l0.9-4.2h0.7l1,4.2c0,0.2,0.1,0.4,0.1,0.6l0,0c0-0.2,0-0.5,0.1-0.6l1-4.2h0.5
	l-1.2,5.3H127.7z"/>
<path class="st0" d="M130.4,56.9v-5.3h0.5v5.3H130.4z"/>
<path class="st0" d="M133.3,56.9v-4.8h-1.7v-0.4h3.8v0.4h-1.7v4.8L133.3,56.9z"/>
<path class="st0" d="M139.4,56.9v-2.5h-2.8v2.5h-0.5v-5.2h0.5v2.3h2.8v-2.3h0.5v5.3H139.4z"/>
</svg>
